<?xml version="1.0" standalone="no"?><!-- Generator: Gravit.io --><svg xmlns="http://www.w3.org/2000/svg" xmlns:xlink="http://www.w3.org/1999/xlink" style="isolation:isolate" viewBox="0 0 375 600" width="375" height="600"><defs><clipPath id="_clipPath_TiofsYavfMJuTHAZp0hlbeSpmSko455N"><rect width="375" height="600"/></clipPath></defs><g clip-path="url(#_clipPath_TiofsYavfMJuTHAZp0hlbeSpmSko455N)"><g id="Group"><path d="M 19.334 283 L 354.666 283 C 356.506 283 358 284.494 358 286.334 L 358 370.666 C 358 372.506 356.506 374 354.666 374 L 19.334 374 C 17.494 374 16 372.506 16 370.666 L 16 286.334 C 16 284.494 17.494 283 19.334 283 Z" style="stroke:none;fill:#FFFFFF;stroke-miterlimit:10;"/><path d="M 19.334 283 L 354.666 283 C 356.506 283 358 284.494 358 286.334 L 358 370.666 C 358 372.506 356.506 374 354.666 374 L 19.334 374 C 17.494 374 16 372.506 16 370.666 L 16 286.334 C 16 284.494 17.494 283 19.334 283 Z" style="fill:none;stroke:#CCCCCC;stroke-width:1;stroke-linecap:square;stroke-miterlimit:3;"/><clipPath id="_clipPath_Ui4hzYMaCElkB0jwfRDiR2i8ICbiOhTX"><path d="M 19.334 283 L 354.666 283 C 356.506 283 358 284.494 358 286.334 L 358 370.666 C 358 372.506 356.506 374 354.666 374 L 19.334 374 C 17.494 374 16 372.506 16 370.666 L 16 286.334 C 16 284.494 17.494 283 19.334 283 Z" style="stroke:black;fill:white;stroke-miterlimit:10;"/><path d="M 19.334 283 L 354.666 283 C 356.506 283 358 284.494 358 286.334 L 358 370.666 C 358 372.506 356.506 374 354.666 374 L 19.334 374 C 17.494 374 16 372.506 16 370.666 L 16 286.334 C 16 284.494 17.494 283 19.334 283 Z" style="fill:white;stroke:black;stroke-width:1;stroke-linecap:square;stroke-miterlimit:3;"/></clipPath><g clip-path="url(#_clipPath_Ui4hzYMaCElkB0jwfRDiR2i8ICbiOhTX)"><rect x="16" y="283" width="342" height="34" transform="matrix(1,0,0,1,0,0)" fill="rgb(238,238,238)" vector-effect="non-scaling-stroke" stroke-width="1" stroke="rgb(204,204,204)" stroke-linejoin="miter" stroke-linecap="square" stroke-miterlimit="3"/></g><g transform="matrix(1,0,0,1,24,286.312)"><text transform="matrix(1,0,0,1,0,20.957)" style="font-family:&quot;Roboto Mono&quot;;font-weight:400;font-size:20px;font-style:normal;fill:#333333;stroke:none;">ChemicalElement()</text></g><g id="Group"><g transform="matrix(1,0,0,1,53,325)"><text transform="matrix(1,0,0,1,0,14.844)" style="font-family:&quot;Roboto&quot;;font-weight:400;font-size:16px;font-style:normal;fill:#333333;stroke:none;">private class (should not be accessed by </text><text transform="matrix(1,0,0,1,0,33.594)" style="font-family:&quot;Roboto&quot;;font-weight:400;font-size:16px;font-style:normal;fill:#333333;stroke:none;">the tester UI)</text></g><path d=" M 43.539 328.746 C 43.04 328.328 42.341 328.456 41.978 329.031 L 36.789 337.254 L 33.931 333.902 C 33.509 333.383 32.803 333.358 32.353 333.845 C 31.903 334.33 31.88 335.145 32.304 335.661 C 32.304 335.661 35.777 339.835 36.276 340.254 C 36.775 340.672 37.473 340.544 37.836 339.969 L 43.787 330.543 C 44.15 329.965 44.038 329.162 43.539 328.746 L 43.539 328.746 Z " fill="rgb(71,204,71)" vector-effect="non-scaling-stroke" stroke-width="0.5" stroke="rgb(52,148,52)" stroke-linejoin="miter" stroke-linecap="butt" stroke-miterlimit="4"/></g></g><g id="Group"><path d="M 19.828 383 L 354.172 383 C 356.285 383 358 384.715 358 386.828 L 358 499.172 C 358 501.285 356.285 503 354.172 503 L 19.828 503 C 17.715 503 16 501.285 16 499.172 L 16 386.828 C 16 384.715 17.715 383 19.828 383 Z" style="stroke:none;fill:#FFFFFF;stroke-linecap:square;stroke-miterlimit:3;"/><path d="M 19.828 383 L 354.172 383 C 356.285 383 358 384.715 358 386.828 L 358 499.172 C 358 501.285 356.285 503 354.172 503 L 19.828 503 C 17.715 503 16 501.285 16 499.172 L 16 386.828 C 16 384.715 17.715 383 19.828 383 Z" style="fill:none;stroke:#CCCCCC;stroke-width:1;stroke-linecap:square;stroke-miterlimit:3;"/><clipPath id="_clipPath_tviChlDghsciWndfRkho5Bq7gBVyfsmw"><path d="M 19.828 383 L 354.172 383 C 356.285 383 358 384.715 358 386.828 L 358 499.172 C 358 501.285 356.285 503 354.172 503 L 19.828 503 C 17.715 503 16 501.285 16 499.172 L 16 386.828 C 16 384.715 17.715 383 19.828 383 Z" style="stroke:black;fill:white;stroke-linecap:square;stroke-miterlimit:3;"/><path d="M 19.828 383 L 354.172 383 C 356.285 383 358 384.715 358 386.828 L 358 499.172 C 358 501.285 356.285 503 354.172 503 L 19.828 503 C 17.715 503 16 501.285 16 499.172 L 16 386.828 C 16 384.715 17.715 383 19.828 383 Z" style="fill:white;stroke:black;stroke-width:1;stroke-linecap:square;stroke-miterlimit:3;"/></clipPath><g clip-path="url(#_clipPath_tviChlDghsciWndfRkho5Bq7gBVyfsmw)"><rect x="16" y="383" width="342" height="36" transform="matrix(1,0,0,1,0,0)" fill="rgb(238,238,238)" vector-effect="non-scaling-stroke" stroke-width="1" stroke="rgb(204,204,204)" stroke-linejoin="miter" stroke-linecap="square" stroke-miterlimit="3"/></g><g id="Group"><g transform="matrix(1,0,0,1,53,425)"><text transform="matrix(1,0,0,1,0,14.844)" style="font-family:&quot;Roboto&quot;;font-weight:400;font-size:16px;font-style:normal;fill:#333333;stroke:none;">private class (should not be accessed by </text><text transform="matrix(1,0,0,1,0,33.594)" style="font-family:&quot;Roboto&quot;;font-weight:400;font-size:16px;font-style:normal;fill:#333333;stroke:none;">the tester UI)</text></g><path d=" M 43.539 428.746 C 43.04 428.328 42.341 428.456 41.978 429.031 L 36.789 437.254 L 33.931 433.902 C 33.509 433.383 32.803 433.358 32.353 433.845 C 31.903 434.33 31.88 435.145 32.304 435.661 C 32.304 435.661 35.777 439.835 36.276 440.254 C 36.775 440.672 37.473 440.544 37.836 439.969 L 43.787 430.543 C 44.15 429.965 44.038 429.162 43.539 428.746 L 43.539 428.746 Z " fill="rgb(71,204,71)" vector-effect="non-scaling-stroke" stroke-width="0.5" stroke="rgb(52,148,52)" stroke-linejoin="miter" stroke-linecap="butt" stroke-miterlimit="4"/></g><g id="Group"><g transform="matrix(1,0,0,1,53,465)"><text transform="matrix(1,0,0,1,0,14.844)" style="font-family:&quot;Roboto&quot;;font-weight:400;font-size:16px;font-style:normal;fill:#333333;stroke:none;">actually changes the atomic number.</text></g><path d=" M 43.539 468.746 C 43.04 468.328 42.341 468.456 41.978 469.031 L 36.789 477.254 L 33.931 473.902 C 33.509 473.383 32.803 473.358 32.353 473.845 C 31.903 474.33 31.88 475.145 32.304 475.661 C 32.304 475.661 35.777 479.835 36.276 480.254 C 36.775 480.672 37.473 480.544 37.836 479.969 L 43.787 470.543 C 44.15 469.965 44.038 469.162 43.539 468.746 L 43.539 468.746 Z " fill="rgb(71,204,71)" vector-effect="non-scaling-stroke" stroke-width="0.5" stroke="rgb(52,148,52)" stroke-linejoin="miter" stroke-linecap="butt" stroke-miterlimit="4"/></g><g transform="matrix(1,0,0,1,24,386.312)"><text transform="matrix(1,0,0,1,0,20.957)" style="font-family:&quot;Roboto Mono&quot;;font-weight:400;font-size:20px;font-style:normal;fill:#333333;stroke:none;">setAtomicNumber()</text></g></g><g id="Navbar"><defs><filter id="AbWMNnGEkxbG2lFOmgYL7XApLqh8kSjA" x="-200%" y="-200%" width="400%" height="400%"><feOffset xmlns="http://www.w3.org/2000/svg" in="SourceAlpha" result="offOut" dx="0" dy="1"/><feGaussianBlur xmlns="http://www.w3.org/2000/svg" in="offOut" result="blurOut" stdDeviation="2.5"/><feComponentTransfer xmlns="http://www.w3.org/2000/svg" in="blurOut" result="opacOut"><feFuncA xmlns="http://www.w3.org/2000/svg" type="table" tableValues="0 0.5"/></feComponentTransfer><feBlend xmlns="http://www.w3.org/2000/svg" in="SourceGraphic" in2="opacOut" mode="normal"/></filter></defs><g filter="url(#AbWMNnGEkxbG2lFOmgYL7XApLqh8kSjA)"><linearGradient id="_lgradient_9" x1="0%" y1="-4.440892098500626e-14%" x2="99.99999999999997%" y2="100%"><stop offset="0%" stop-opacity="1" style="stop-color:rgb(255,65,108)"/><stop offset="100%" stop-opacity="1" style="stop-color:rgb(255,75,43)"/></linearGradient><rect x="0" y="0" width="375" height="65" transform="matrix(1,0,0,1,0,0)" fill="url(#_lgradient_9)"/></g><g transform="matrix(1,0,0,1,65,18)"><text transform="matrix(1,0,0,1,0,22.703)" style="font-family:&quot;Roboto&quot;;font-weight:400;font-size:24px;font-style:normal;fill:#ffffff;stroke:none;">Tester UI</text></g><path d=" M 42.349 30.895 L 24.124 30.895 L 32.525 22.495 L 30.349 20.395 L 18.349 32.395 L 30.349 44.395 L 32.449 42.295 L 24.124 33.895 L 42.349 33.895 L 42.349 30.895 Z " fill="rgb(255,255,255)"/></g><g id="Group"><g transform="matrix(1,0,0,1,117.623,81.391)"><text transform="matrix(1,0,0,1,0,28.292)" style="font-family:&quot;Roboto Mono&quot;;font-weight:700;font-size:27px;font-style:normal;fill:#ff4b2b;stroke:none;">ChemicalElement</text></g><g transform="matrix(1,0,0,1,16,129)"><text transform="matrix(1,0,0,1,4.969,14.844)" style="font-family:&quot;Roboto&quot;;font-weight:400;font-size:16px;font-style:normal;fill:#999999;stroke:none;">A class that represents every chemical element </text><text transform="matrix(1,0,0,1,59.5,33.594)" style="font-family:&quot;Roboto&quot;;font-weight:400;font-size:16px;font-style:normal;fill:#999999;stroke:none;">in the periodic table, and provides utility </text><text transform="matrix(1,0,0,1,17.609,52.344)" style="font-family:&quot;Roboto&quot;;font-weight:400;font-size:16px;font-style:normal;fill:#999999;stroke:none;">functions for searching elements on demand.</text></g></g><path d=" M 47.385 219.516 C 46.719 218.958 45.789 219.129 45.304 219.895 L 38.385 230.86 L 34.574 226.39 C 34.013 225.698 33.07 225.665 32.47 226.315 C 31.87 226.96 31.84 228.048 32.405 228.735 C 32.405 228.735 37.035 234.301 37.701 234.859 C 38.366 235.417 39.297 235.246 39.781 234.48 L 47.715 221.911 C 48.2 221.141 48.05 220.07 47.385 219.516 L 47.385 219.516 Z " fill="rgb(71,204,71)" vector-effect="non-scaling-stroke" stroke-width="0.5" stroke="rgb(52,148,52)" stroke-linejoin="miter" stroke-linecap="butt" stroke-miterlimit="4"/><g transform="matrix(1,0,0,1,58,213.125)"><text transform="matrix(1,0,0,1,0,22.266)" style="font-family:&quot;Roboto&quot;;font-weight:400;font-size:24px;font-style:normal;fill:#3d993d;stroke:none;">All 10 tests passed!</text></g></g></svg>