<?xml version="1.0" standalone="no"?><!-- Generator: Gravit.io --><svg xmlns="http://www.w3.org/2000/svg" xmlns:xlink="http://www.w3.org/1999/xlink" style="isolation:isolate" viewBox="478.084 182.621 394 455" width="394" height="455"><defs><clipPath id="_clipPath_IOWs0vOlBtV6uBZpMpmCxa24u1zVV7w4"><rect x="478.084" y="182.621" width="393.831" height="454.757"/></clipPath></defs><g clip-path="url(#_clipPath_IOWs0vOlBtV6uBZpMpmCxa24u1zVV7w4)"><linearGradient id="_lgradient_1" x1="0.1464466094067262" y1="0.14644660940672627" x2="0.8535533905932737" y2="0.8535533905932737" gradientTransform="matrix(393.831,0,0,454.757,478.084,182.621)" gradientUnits="userSpaceOnUse"><stop offset="0%" stop-opacity="1" style="stop-color:rgb(50,211,244)"/><stop offset="98.69565217391305%" stop-opacity="1" style="stop-color:rgb(7,114,135)"/></linearGradient><polygon points="871.916,523.689,675,637.379,478.084,523.689,478.084,296.311,675,182.621,871.916,296.311" fill="url(#_lgradient_1)"/><clipPath id="_clipPath_HNePqfzvcgfvZP3vdOzg6iZmc20XyJax"><polygon points="871.916,523.689,675,637.379,478.084,523.689,478.084,296.311,675,182.621,871.916,296.311" fill="url(#_lgradient_1)"/></clipPath><g clip-path="url(#_clipPath_HNePqfzvcgfvZP3vdOzg6iZmc20XyJax)"><polygon points="854.267,513.5,675,617,495.733,513.5,495.733,306.5,675,203,854.267,306.5" fill="rgb(1,28,45)"/><radialGradient id="_rgradient_1" fx="0.4999999999999998" fy="0.4975845410628017" cx="0.5" cy="0.5" r="0.5" gradientTransform="matrix(834,0,0,-826,258,617)" gradientUnits="userSpaceOnUse"><stop offset="0%" stop-opacity="0.65" style="stop-color:rgb(50,211,244)"/><stop offset="100%" stop-opacity="0" style="stop-color:rgb(50,211,244)"/></radialGradient><polygon points="854.267,513.5,675,617,495.733,513.5,495.733,306.5,675,203,854.267,306.5" fill="url(#_rgradient_1)"/></g></g></svg>